<?xml version="1.0" encoding="UTF-8" standalone="no"?>
<!-- Created with Inkscape (http://www.inkscape.org/) -->

<svg
   width="132.06784mm"
   height="152.49881mm"
   viewBox="0 0 132.06784 152.49881"
   version="1.1"
   id="svg8"
   inkscape:version="1.2.1 (9c6d41e410, 2022-07-14)"
   sodipodi:docname="logo.svg"
   inkscape:export-filename="logo.png"
   inkscape:export-xdpi="46.16"
   inkscape:export-ydpi="46.16"
   xml:space="preserve"
   xmlns:inkscape="http://www.inkscape.org/namespaces/inkscape"
   xmlns:sodipodi="http://sodipodi.sourceforge.net/DTD/sodipodi-0.dtd"
   xmlns="http://www.w3.org/2000/svg"
   xmlns:svg="http://www.w3.org/2000/svg"
   xmlns:rdf="http://www.w3.org/1999/02/22-rdf-syntax-ns#"
   xmlns:cc="http://creativecommons.org/ns#"
   xmlns:dc="http://purl.org/dc/elements/1.1/"><defs
     id="defs2"><clipPath
       clipPathUnits="userSpaceOnUse"
       id="clipPath842"><path
         sodipodi:type="star"
         style="opacity:1;fill:none;fill-opacity:0.97979796;stroke:#ffffff;stroke-width:3.11897802;stroke-miterlimit:4;stroke-dasharray:none;stroke-dashoffset:0;stroke-opacity:1"
         id="path844"
         sodipodi:sides="6"
         sodipodi:cx="82.041534"
         sodipodi:cy="193.5974"
         sodipodi:r1="73.940002"
         sodipodi:r2="64.03392"
         sodipodi:arg1="0.52359878"
         sodipodi:arg2="1.0471976"
         inkscape:flatsided="true"
         inkscape:rounded="0"
         inkscape:randomized="0"
         d="m 146.07545,230.5674 -64.033916,36.97 -64.03392,-36.97 0,-73.94 64.033921,-36.97001 64.033925,36.97001 z"
         inkscape:transform-center-x="3.0492663e-06"
         inkscape:transform-center-y="-6.6020762e-06" /></clipPath><clipPath
       clipPathUnits="userSpaceOnUse"
       id="clipPath831"><path
         sodipodi:type="star"
         style="opacity:1;fill:none;fill-opacity:0.97979796;stroke:#a71b1e;stroke-width:4;stroke-miterlimit:4;stroke-dasharray:none;stroke-dashoffset:0;stroke-opacity:1"
         id="path833"
         sodipodi:sides="6"
         sodipodi:cx="102.62011"
         sodipodi:cy="146.68599"
         sodipodi:r1="73.940002"
         sodipodi:r2="64.03392"
         sodipodi:arg1="0.52359878"
         sodipodi:arg2="1.0471976"
         inkscape:flatsided="true"
         inkscape:rounded="0"
         inkscape:randomized="0"
         d="m 166.65403,183.65599 -64.03392,36.97 -64.033921,-36.97 0,-73.94 64.033921,-36.970003 64.03392,36.970003 z"
         inkscape:transform-center-x="3.0492663e-06"
         inkscape:transform-center-y="-6.6020762e-06" /></clipPath><clipPath
       clipPathUnits="userSpaceOnUse"
       id="clipPath868"><path
         sodipodi:type="star"
         style="opacity:1;fill:none;fill-opacity:0.97979796;stroke:#a71b1e;stroke-width:4;stroke-miterlimit:4;stroke-dasharray:none;stroke-dashoffset:0;stroke-opacity:1"
         id="path870"
         sodipodi:sides="6"
         sodipodi:cx="102.62011"
         sodipodi:cy="146.68599"
         sodipodi:r1="73.940002"
         sodipodi:r2="64.03392"
         sodipodi:arg1="0.52359878"
         sodipodi:arg2="1.0471976"
         inkscape:flatsided="true"
         inkscape:rounded="0"
         inkscape:randomized="0"
         d="m 166.65403,183.65599 -64.03392,36.97 -64.033921,-36.97 0,-73.94 64.033921,-36.970003 64.03392,36.970003 z"
         inkscape:transform-center-x="3.0492663e-06"
         inkscape:transform-center-y="-6.6020762e-06" /></clipPath><clipPath
       clipPathUnits="userSpaceOnUse"
       id="clipPath885"><path
         sodipodi:type="star"
         style="opacity:1;fill:none;fill-opacity:0.97979796;stroke:#a71b1e;stroke-width:4;stroke-miterlimit:4;stroke-dasharray:none;stroke-dashoffset:0;stroke-opacity:1"
         id="path887"
         sodipodi:sides="6"
         sodipodi:cx="102.62011"
         sodipodi:cy="146.68599"
         sodipodi:r1="73.940002"
         sodipodi:r2="64.03392"
         sodipodi:arg1="0.52359878"
         sodipodi:arg2="1.0471976"
         inkscape:flatsided="true"
         inkscape:rounded="0"
         inkscape:randomized="0"
         d="m 166.65403,183.65599 -64.03392,36.97 -64.033921,-36.97 0,-73.94 64.033921,-36.970003 64.03392,36.970003 z"
         inkscape:transform-center-x="3.0492663e-06"
         inkscape:transform-center-y="-6.6020762e-06" /></clipPath><mask
       maskUnits="userSpaceOnUse"
       id="mask4825"><g
         id="g4831"><rect
           style="opacity:1;vector-effect:none;fill:#578dc5;fill-opacity:1;stroke:none;stroke-width:0.1457504;stroke-linecap:butt;stroke-linejoin:miter;stroke-miterlimit:4;stroke-dasharray:none;stroke-dashoffset:0;stroke-opacity:1"
           id="rect4827"
           width="33.598763"
           height="33.598763"
           x="68.167076"
           y="168.22989" /><rect
           style="opacity:1;vector-effect:none;fill:#578dc5;fill-opacity:1;stroke:none;stroke-width:0.1457504;stroke-linecap:butt;stroke-linejoin:miter;stroke-miterlimit:4;stroke-dasharray:none;stroke-dashoffset:0;stroke-opacity:1"
           id="rect4829"
           width="33.598763"
           height="33.598763"
           x="101.76582"
           y="168.22989" /></g></mask><clipPath
       clipPathUnits="userSpaceOnUse"
       id="clipPath4853"><path
         style="fill:#4e7dab;fill-opacity:1;stroke:none;stroke-width:0.15277882px;stroke-linecap:butt;stroke-linejoin:miter;stroke-opacity:1"
         d="m 17.061585,168.35154 -67.03291,-0.0227 0.0035,3.79683 z"
         id="path4855"
         inkscape:connector-curvature="0" /></clipPath><clipPath
       clipPathUnits="userSpaceOnUse"
       id="clipPath4857"><path
         style="fill:#4e7dab;fill-opacity:1;stroke:none;stroke-width:0.15277882px;stroke-linecap:butt;stroke-linejoin:miter;stroke-opacity:1"
         d="m 17.061585,168.35154 -67.03291,-0.0227 0.0035,3.79683 z"
         id="path4859"
         inkscape:connector-curvature="0" /></clipPath><clipPath
       clipPathUnits="userSpaceOnUse"
       id="clipPath4873"><path
         inkscape:connector-curvature="0"
         id="path4875"
         d="m -80.436897,-134.84488 94.93643,0.0234 -0.005,-3.91921 z"
         style="fill:#588fc6;fill-opacity:1;stroke:#588fc6;stroke-width:0.18472448px;stroke-linecap:butt;stroke-linejoin:miter;stroke-opacity:1" /></clipPath><clipPath
       clipPathUnits="userSpaceOnUse"
       id="clipPath4877"><path
         inkscape:connector-curvature="0"
         id="path4879"
         d="m -80.436897,-134.84488 94.93643,0.0234 -0.005,-3.91921 z"
         style="fill:#588fc6;fill-opacity:1;stroke:#588fc6;stroke-width:0.18472448px;stroke-linecap:butt;stroke-linejoin:miter;stroke-opacity:1" /></clipPath><clipPath
       clipPathUnits="userSpaceOnUse"
       id="clipPath4881"><path
         inkscape:connector-curvature="0"
         id="path4883"
         d="m -80.436897,-134.84488 94.93643,0.0234 -0.005,-3.91921 z"
         style="fill:#588fc6;fill-opacity:1;stroke:#588fc6;stroke-width:0.18472448px;stroke-linecap:butt;stroke-linejoin:miter;stroke-opacity:1" /></clipPath></defs><sodipodi:namedview
     id="base"
     pagecolor="#ffffff"
     bordercolor="#666666"
     borderopacity="1.0"
     inkscape:pageopacity="0.0"
     inkscape:pageshadow="2"
     inkscape:zoom="0.65410669"
     inkscape:cx="437.23754"
     inkscape:cy="480.04401"
     inkscape:document-units="mm"
     inkscape:current-layer="layer1"
     showgrid="false"
     inkscape:window-width="1920"
     inkscape:window-height="1009"
     inkscape:window-x="-8"
     inkscape:window-y="-8"
     inkscape:window-maximized="1"
     fit-margin-top="0"
     fit-margin-left="0"
     fit-margin-right="0"
     fit-margin-bottom="0"
     inkscape:showpageshadow="2"
     inkscape:pagecheckerboard="0"
     inkscape:deskcolor="#d1d1d1" /><metadata
     id="metadata5"><rdf:RDF><cc:Work
         rdf:about=""><dc:format>image/svg+xml</dc:format><dc:type
           rdf:resource="http://purl.org/dc/dcmitype/StillImage" /><dc:title /></cc:Work></rdf:RDF></metadata><g
     inkscape:label="Layer 1"
     inkscape:groupmode="layer"
     id="layer1"
     transform="translate(-36.586189,-70.436586)"><path
       sodipodi:type="star"
       style="opacity:1;fill:#25a7d9;fill-opacity:1;stroke:#656a80;stroke-width:4;stroke-miterlimit:4;stroke-dasharray:none;stroke-dashoffset:0;stroke-opacity:1"
       id="path4573"
       sodipodi:sides="6"
       sodipodi:cx="102.62011"
       sodipodi:cy="146.68599"
       sodipodi:r1="73.940002"
       sodipodi:r2="64.03392"
       sodipodi:arg1="0.52359878"
       sodipodi:arg2="1.0471976"
       inkscape:flatsided="true"
       inkscape:rounded="0"
       inkscape:randomized="0"
       d="m 166.65403,183.65599 -64.03392,36.97 -64.033921,-36.97 0,-73.94 64.033921,-36.970003 64.03392,36.970003 z"
       inkscape:transform-center-x="3.0492663e-06"
       inkscape:transform-center-y="-6.6020762e-06" /><path
       style="fill:#ffffff;fill-opacity:1;stroke:none;stroke-width:0.821057px;stroke-linecap:butt;stroke-linejoin:miter;stroke-opacity:1"
       d="m 39.480018,143.09088 c 23.224114,0.84538 42.816979,-7.96885 61.002642,-20.22344 -45.928995,-16.4193 22.63928,-18.13796 43.29526,-22.78697 -3.7223,18.53258 -5.33192,92.95295 -22.59707,42.91545 -12.60365,15.95755 -20.91518,48.65534 -20.86327,74.73733 l -23.763878,-13.5146 c 0.227249,-17.07828 2.916716,-28.95939 6.079159,-42.61328 -13.730688,4.10874 -27.15762,6.92972 -43.152846,5.60176 z"
       id="path346"
       sodipodi:nodetypes="ccccccccc" /><g
       aria-label="ProdPad"
       id="text1542"
       style="font-size:23.4139px;line-height:1.25;stroke-width:0.585349"><path
         d="m 68.153841,174.6097 q 0,1.14326 -0.40014,2.24079 -0.40014,1.08609 -1.143257,1.82921 -1.017498,1.00606 -2.275081,1.52053 -1.24615,0.51447 -3.109658,0.51447 h -2.732384 v 5.54479 H 54.103214 V 169.2364 h 7.225384 q 1.623425,0 2.732384,0.28581 1.120391,0.27438 1.977834,0.83458 1.028931,0.67452 1.566262,1.72632 0.548763,1.05179 0.548763,2.52659 z m -4.538729,0.1029 q 0,-0.72026 -0.388708,-1.23472 -0.388707,-0.5259 -0.903173,-0.73169 -0.685954,-0.27438 -1.33761,-0.29724 -0.651657,-0.0343 -1.737751,-0.0343 h -0.754549 v 5.09893 h 1.257582 q 1.120392,0 1.840644,-0.13719 0.731684,-0.1372 1.223285,-0.54877 0.423005,-0.36584 0.605926,-0.86887 0.194354,-0.51447 0.194354,-1.24615 z"
         style="font-weight:bold"
         id="path4549" /><path
         d="m 80.34096,177.34209 h -0.365842 q -0.262949,-0.0915 -0.84601,-0.13719 -0.583061,-0.0457 -0.971769,-0.0457 -0.880308,0 -1.554829,0.11432 -0.674522,0.11433 -1.451936,0.38871 v 8.59729 h -4.115725 v -12.83877 h 4.115725 v 1.88637 q 1.360475,-1.16612 2.366541,-1.5434 1.006066,-0.3887 1.852077,-0.3887 0.217218,0 0.4916,0.0114 0.274382,0.0114 0.480168,0.0343 z"
         style="font-weight:bold"
         id="path4551" /><path
         d="m 95.797793,179.84582 q 0,3.16682 -1.852076,4.99603 -1.840644,1.81778 -5.178954,1.81778 -3.33831,0 -5.190386,-1.81778 -1.840643,-1.82921 -1.840643,-4.99603 0,-3.18969 1.852076,-5.00747 1.863508,-1.81777 5.178953,-1.81777 3.361176,0 5.190386,1.82921 1.840644,1.82921 1.840644,4.99603 z m -5.064628,3.12109 q 0.40014,-0.4916 0.594494,-1.17755 0.205786,-0.69739 0.205786,-1.92067 0,-1.13183 -0.205786,-1.89781 -0.205787,-0.76598 -0.571629,-1.22329 -0.365842,-0.46873 -0.880308,-0.66309 -0.514465,-0.19435 -1.108959,-0.19435 -0.594493,0 -1.063229,0.16006 -0.457302,0.16005 -0.880307,0.64022 -0.377275,0.44587 -0.605926,1.22329 -0.217219,0.77741 -0.217219,1.95497 0,1.05179 0.194353,1.82921 0.194354,0.76598 0.571629,1.23471 0.365842,0.44587 0.868875,0.65166 0.514466,0.20579 1.166122,0.20579 0.560196,0 1.063229,-0.18292 0.514466,-0.19436 0.868875,-0.64023 z"
         style="font-weight:bold"
         id="path4553" /><path
         d="m 111.23176,186.25949 h -4.11572 v -1.33761 q -1.06323,0.86888 -1.98927,1.28045 -0.92604,0.41157 -2.13789,0.41157 -2.34368,0 -3.749883,-1.80635 -1.406206,-1.80634 -1.406206,-4.87027 0,-1.63486 0.468735,-2.89244 0.480168,-1.26901 1.303313,-2.17219 0.777411,-0.85744 1.886371,-1.32618 1.10896,-0.48016 2.21792,-0.48016 1.15469,0 1.88637,0.25151 0.74312,0.24009 1.52054,0.61736 v -5.46477 h 4.11572 z m -4.11572,-3.5441 v -6.29934 q -0.43444,-0.18292 -0.91461,-0.26295 -0.48017,-0.08 -0.88031,-0.08 -1.62342,0 -2.43513,1.0175 -0.81172,1.00607 -0.81172,2.80098 0,1.88637 0.65166,2.74382 0.65166,0.84601 2.09216,0.84601 0.5602,0 1.18899,-0.20579 0.62879,-0.21722 1.10896,-0.5602 z"
         style="font-weight:bold"
         id="path4555" /><path
         d="m 126.59713,174.38105 q 0,1.13183 -0.40014,2.10359 -0.3887,0.96034 -1.09752,1.66916 -0.88031,0.88031 -2.08073,1.32618 -1.20042,0.43444 -3.02963,0.43444 h -2.26365 v 6.34507 h -2.26365 V 169.2364 h 4.61876 q 1.53196,0 2.59519,0.26295 1.06323,0.25151 1.88638,0.80028 0.97176,0.65165 1.49766,1.62342 0.53733,0.97177 0.53733,2.458 z m -2.35511,0.0572 q 0,-0.88031 -0.30868,-1.53197 -0.30868,-0.65166 -0.93747,-1.06323 -0.54876,-0.35441 -1.25758,-0.50303 -0.69739,-0.16006 -1.77205,-0.16006 h -2.24078 v 6.80238 h 1.90924 q 1.37191,0 2.22935,-0.24008 0.85744,-0.25152 1.39477,-0.78885 0.53733,-0.54876 0.75455,-1.15469 0.22865,-0.60593 0.22865,-1.36047 z"
         id="path4557" /><path
         d="m 138.76138,186.25949 h -2.13789 v -1.36047 q -0.28581,0.19435 -0.77741,0.54876 -0.48017,0.34298 -0.93747,0.54876 -0.53733,0.26295 -1.23472,0.43444 -0.69739,0.18292 -1.63486,0.18292 -1.72631,0 -2.92673,-1.14326 -1.20042,-1.14325 -1.20042,-2.9153 0,-1.45194 0.61735,-2.34368 0.6288,-0.90317 1.78349,-1.41764 1.16612,-0.51446 2.80097,-0.69738 1.63486,-0.18292 3.5098,-0.27438 v -0.33155 q 0,-0.73168 -0.26295,-1.21185 -0.25151,-0.48017 -0.73168,-0.75455 -0.4573,-0.26295 -1.09753,-0.35441 -0.64022,-0.0915 -1.33761,-0.0915 -0.84601,0 -1.88637,0.22865 -1.04036,0.21722 -2.14932,0.64022 h -0.11433 v -2.18362 q 0.62879,-0.17148 1.81778,-0.37727 1.18899,-0.20579 2.34368,-0.20579 1.34904,0 2.34367,0.22865 1.00607,0.21722 1.73775,0.75455 0.72025,0.5259 1.09753,1.36048 0.37727,0.83458 0.37727,2.06929 z m -2.13789,-3.14396 v -3.55552 q -0.9832,0.0572 -2.32081,0.17148 -1.32618,0.11433 -2.10359,0.33155 -0.92604,0.26295 -1.49767,0.82314 -0.57163,0.54877 -0.57163,1.52054 0,1.09752 0.66309,1.65772 0.66309,0.54876 2.02357,0.54876 1.13182,0 2.06929,-0.43444 0.93747,-0.44587 1.73775,-1.06323 z"
         id="path4559" /><path
         d="m 153.25789,186.25949 h -2.14933 v -1.33761 q -0.92603,0.80028 -1.9321,1.24615 -1.00607,0.44587 -2.18362,0.44587 -2.28651,0 -3.63556,-1.76061 -1.33761,-1.76062 -1.33761,-4.88171 0,-1.62343 0.4573,-2.89244 0.46874,-1.26902 1.25759,-2.16076 0.77741,-0.86887 1.80634,-1.32617 1.04037,-0.45731 2.14933,-0.45731 1.00606,0 1.78348,0.21722 0.77741,0.20579 1.63485,0.65166 v -5.53337 h 2.14933 z m -2.14933,-3.14396 v -7.32827 q -0.86887,-0.38871 -1.55483,-0.53733 -0.68595,-0.14863 -1.49766,-0.14863 -1.80635,0 -2.81241,1.25759 -1.00607,1.25758 -1.00607,3.56696 0,2.27508 0.77741,3.46407 0.77742,1.17755 2.4923,1.17755 0.91461,0 1.85208,-0.40014 0.93747,-0.41157 1.74918,-1.0518 z"
         id="path4561" /></g><path
       inkscape:transform-center-y="-6.6020762e-06"
       inkscape:transform-center-x="3.0492663e-06"
       d="m 166.65403,183.65599 -64.03392,36.97 -64.033921,-36.97 0,-73.94 64.033921,-36.970003 64.03392,36.970003 z"
       inkscape:randomized="0"
       inkscape:rounded="0"
       inkscape:flatsided="true"
       sodipodi:arg2="1.0471976"
       sodipodi:arg1="0.52359878"
       sodipodi:r2="64.03392"
       sodipodi:r1="73.940002"
       sodipodi:cy="146.68599"
       sodipodi:cx="102.62011"
       sodipodi:sides="6"
       id="path840"
       style="opacity:1;fill:none;fill-opacity:1;stroke:#000000;stroke-width:4;stroke-miterlimit:4;stroke-dasharray:none;stroke-dashoffset:0;stroke-opacity:1"
       sodipodi:type="star"
       transform="translate(-4.3846264e-8,-0.28602161)" /></g></svg>
